<?xml version="1.0" standalone="no"?>
<!DOCTYPE svg PUBLIC "-//W3C//DTD SVG 20010904//EN"
 "http://www.w3.org/TR/2001/REC-SVG-20010904/DTD/svg10.dtd">
<svg version="1.0" xmlns="http://www.w3.org/2000/svg"
 width="1773.000000pt" height="1773.000000pt" viewBox="0 0 1773.000000 1773.000000"
 preserveAspectRatio="xMidYMid meet">
<metadata>
Created by potrace 1.14, written by Peter Selinger 2001-2017
</metadata>
<g transform="translate(0.000000,1773.000000) scale(0.100000,-0.100000)"
fill="#000000" stroke="none">
<path d="M2651 15172 c-24 -9 -53 -30 -65 -45 l-21 -28 0 -6232 c0 -5944 1
-6233 18 -6264 9 -18 29 -41 44 -50 26 -17 329 -18 6283 -18 5966 0 6256 1
6287 18 18 9 41 29 50 44 17 26 18 328 21 6215 2 5691 1 6191 -14 6213 -10 15
-12 25 -5 25 14 0 14 35 0 61 -5 11 -28 33 -51 49 l-41 30 -6231 -1 c-5833 0
-6234 -1 -6275 -17z m2000 -6307 l4 -6110 -937 -3 -938 -2 0 6108 c0 3360 3
6112 7 6115 3 4 423 6 933 5 l927 -3 4 -6110z m8119 6085 c-19 -17 -151 -116
-292 -220 -142 -105 -268 -200 -280 -211 -22 -18 -176 -134 -798 -596 -146
-108 -267 -199 -270 -203 -3 -4 -126 -96 -275 -206 -148 -109 -274 -204 -280
-210 -5 -6 -122 -94 -260 -194 -137 -101 -261 -193 -275 -206 -14 -12 -140
-106 -280 -210 -140 -103 -257 -190 -260 -194 -3 -4 -120 -92 -260 -195 -140
-103 -266 -198 -280 -210 l-25 -23 -2030 -3 -2030 -4 -3 1445 c-1 795 0 1451
3 1458 3 9 806 12 3967 12 l3963 -1 -35 -29z m2273 -6085 l2 -6110 -963 -3
-963 -2 -23 23 c-13 13 -140 110 -282 215 -143 106 -385 287 -539 402 -154
115 -397 295 -540 401 -143 106 -266 198 -272 205 -7 7 -128 98 -270 203 -142
105 -384 286 -538 401 -154 115 -397 295 -540 401 -143 106 -264 197 -270 203
-5 6 -127 98 -270 204 -143 106 -386 287 -540 402 -154 115 -395 295 -535 399
-140 104 -266 199 -280 210 -39 32 -525 395 -814 609 -143 106 -263 197 -266
200 -3 4 -125 96 -271 203 -146 108 -275 204 -287 214 -21 19 -293 221 -784
584 -145 107 -276 206 -293 221 -16 15 -139 107 -272 204 -134 98 -243 183
-242 189 0 7 117 98 260 202 143 105 268 197 278 207 17 15 195 148 801 598
140 104 265 198 277 209 13 11 143 109 290 218 148 108 277 205 288 215 20 18
320 241 790 590 143 106 271 202 285 215 14 12 138 105 275 207 253 188 583
435 1065 796 146 109 387 290 535 400 149 111 325 243 392 293 66 51 187 142
268 202 81 61 271 203 423 317 153 114 396 296 542 404 146 108 267 200 270
204 3 3 127 96 275 205 149 110 275 205 280 211 6 6 80 62 165 124 280 205
342 254 369 287 l26 33 948 -2 949 -3 1 -6110z m-6423 2981 c0 -2 -44 -36 -97
-77 -54 -40 -100 -75 -103 -79 -3 -3 -122 -93 -265 -199 -143 -106 -388 -289
-545 -407 -157 -117 -400 -299 -540 -404 -140 -105 -380 -284 -532 -398 -414
-309 -905 -678 -1502 -1124 -86 -65 -159 -118 -161 -118 -3 0 -5 632 -5 1405
l0 1405 1875 0 c1031 0 1875 -2 1875 -4z m-3611 -3298 c69 -51 128 -95 131
-99 3 -5 126 -97 273 -206 647 -480 787 -585 799 -596 7 -7 135 -102 283 -211
149 -110 272 -202 275 -206 3 -4 117 -89 253 -189 264 -194 368 -274 362 -279
-2 -2 -50 6 -107 17 -470 94 -1006 22 -1418 -190 -254 -131 -537 -356 -696
-553 -82 -102 -200 -279 -249 -373 -21 -40 -40 -73 -42 -73 -1 0 -3 686 -3
1525 0 839 3 1525 6 1525 4 0 64 -41 133 -92z m2001 -1953 c334 -18 665 -139
980 -356 452 -311 768 -861 819 -1429 7 -71 11 -488 11 -1087 l0 -973 -1976 0
-1975 0 4 998 c5 1029 7 1104 48 1297 61 288 208 599 393 825 185 226 354 365
620 507 195 105 360 162 571 198 106 18 303 33 370 29 22 -2 83 -6 135 -9z
m2205 -1187 c143 -106 265 -197 270 -204 6 -6 127 -97 270 -203 143 -105 386
-286 540 -401 154 -115 396 -295 538 -401 142 -105 263 -196 270 -203 6 -6
130 -99 274 -206 145 -107 388 -288 540 -402 153 -114 395 -294 538 -400 143
-105 271 -202 284 -215 l24 -23 -1862 0 -1861 0 0 988 c0 619 -4 1030 -11
1102 -12 130 -48 314 -86 440 -30 102 -127 331 -177 418 -20 35 -36 66 -36 68
0 2 51 -34 113 -81 61 -46 229 -171 372 -277z"/>
<path d="M10752 10899 c-130 -17 -379 -82 -514 -135 -166 -65 -434 -213 -498
-275 -8 -8 -49 -42 -90 -76 -176 -142 -363 -367 -488 -587 -224 -392 -315
-889 -247 -1346 88 -594 427 -1127 926 -1455 129 -86 378 -207 514 -251 379
-123 800 -137 1186 -39 326 83 674 274 928 510 100 93 281 312 329 397 12 20
32 54 46 76 51 81 127 245 166 359 130 374 159 734 89 1102 -77 408 -264 774
-549 1075 -80 85 -259 235 -362 304 -247 166 -563 285 -898 337 -94 15 -435
18 -538 4z m577 -230 c361 -60 681 -215 972 -472 93 -82 244 -262 324 -386
108 -167 212 -425 254 -628 23 -113 40 -252 32 -257 -3 -2 -860 -1 -1904 2
l-1897 5 6 51 c71 613 411 1145 924 1442 41 24 80 48 87 54 22 19 187 87 298
123 294 95 596 117 904 66z m1584 -2024 c-9 -221 -92 -513 -209 -734 -94 -178
-187 -304 -329 -447 -182 -183 -331 -293 -515 -381 -304 -145 -570 -201 -909
-190 -270 8 -480 55 -725 163 -93 41 -269 139 -298 167 -7 6 -49 39 -93 72
-398 299 -674 808 -721 1329 l-7 76 1524 3 c838 1 1695 2 1904 2 l380 0 -2
-60z"/>
</g>
</svg>
